# xmcd
#
# Track frame offsets:
#	182
#	13040
#	30800
#	45507
#	59492
#	72280
#	92545
#	104075
#	117297
#	129690
#	146395
#	168665
#	184775
#	196050
#	218340
#
# Disc length: 3081 seconds
#
# Revision: 1
# Processed by: cddbd v1.4PL0 Copyright (c) Steve Scherf et al.
# Submitted via: audiograbber 1.82.02
#
DISCID=ca0c070f
DTITLE=Sonny Terry and Brownie McGee - Jump Little Children
DYEAR=1974
DGENRE=Blues
TTITLE0=Jump Little Children
TTITLE1=See See Rider
TTITLE2=Couldn't Believe My Eyes
TTITLE3=Four Walls
TTITLE4=Don't Wait for Me
TTITLE5=Worry, Worry, Worry
TTITLE6=One More Chance
TTITLE7=Sufferin'
TTITLE8=Family Business
TTITLE9=You're Going to Leave
TTITLE10=Standin' on the Highway
TTITLE11=Robbin' the Grave
TTITLE12=Sellin' Out
TTITLE13=Black Night Road
TTITLE14=Train and my Woman
EXTD=
EXTT0=
EXTT1=
EXTT2=
EXTT3=
EXTT4=
EXTT5=
EXTT6=
EXTT7=
EXTT8=
EXTT9=
EXTT10=
EXTT11=
EXTT12=
EXTT13=
EXTT14=
PLAYORDER=
